<?xml version="1.0" encoding="UTF-8"?>
<svg version="1.1" xmlns="http://www.w3.org/2000/svg" width="1080" height="1080">
<path d="M0 0 C7.30993777 -0.09959565 14.61947209 -0.17181112 21.92993164 -0.21972656 C24.41177256 -0.2397219 26.89356709 -0.26692726 29.37524414 -0.30175781 C32.96251947 -0.35080964 36.54916678 -0.37309058 40.13671875 -0.390625 C41.22893234 -0.41127014 42.32114594 -0.43191528 43.44645691 -0.45318604 C52.94334685 -0.45589256 63.97601186 1.16760327 71.56640625 7.4140625 C77.29834765 13.75512028 78.78324996 20.55371717 78.41796875 28.9453125 C77.58765305 35.01360106 75.39292928 39.03920725 70.75 43 C69.8425 43.66 68.935 44.32 68 45 C68.51949219 45.3403125 69.03898437 45.680625 69.57421875 46.03125 C75.3523253 50.04708746 79.74751235 54.40245387 81.640625 61.3515625 C82.74109985 69.46158367 81.99372597 78.30595629 77 85 C71.43295588 91.6711227 63.1608059 94.45903223 54.69152832 95.34680176 C51.16746971 95.4587393 47.66589656 95.45093584 44.140625 95.390625 C42.87023376 95.38496521 41.59984253 95.37930542 40.29095459 95.37347412 C36.95662257 95.35503764 33.62344436 95.31927521 30.28942871 95.2746582 C26.87013575 95.23331642 23.45072227 95.2153812 20.03125 95.1953125 C13.35381474 95.15146956 6.67706425 95.08255834 0 95 C0 91.04 0 87.08 0 83 C4.95 82.01 4.95 82.01 10 81 C10 58.89 10 36.78 10 14 C6.7 13.34 3.4 12.68 0 12 C0 8.04 0 4.08 0 0 Z M30 15 C30 22.92 30 30.84 30 39 C33.17625 39.0825 36.3525 39.165 39.625 39.25 C41.1092749 39.30462402 41.1092749 39.30462402 42.62353516 39.36035156 C48.25795762 39.43096692 51.59081997 38.86672571 56 35 C58.69803929 30.95294107 58.7703876 27.75207507 58 23 C55.64643252 18.9548059 53.95443949 17.38884572 49.625 15.625 C43.23427223 14.39126877 36.4632846 14.8845842 30 15 Z M30 54 C30 62.58 30 71.16 30 80 C34.9809375 80.0928125 34.9809375 80.0928125 40.0625 80.1875 C41.09511963 80.21481201 42.12773926 80.24212402 43.19165039 80.27026367 C49.6670768 80.32835325 54.79699705 79.77593589 59.875 75.375 C61.97191697 70.94817529 62.74493812 66.45662176 61.3046875 61.70703125 C59.45574874 57.71070298 58.17254349 55.67251582 54 54 C51.29177736 53.72588595 51.29177736 53.72588595 48.359375 53.8046875 C47.39483398 53.80968262 46.43029297 53.81467773 45.43652344 53.81982422 C44.2199707 53.83803223 43.00341797 53.85624023 41.75 53.875 C37.8725 53.91625 33.995 53.9575 30 54 Z " fill="#FFFFFF" transform="translate(177,496)"/>
<path d="M0 0 C6.14339358 0.68513185 12.38977565 0.62387615 18.56542969 0.76708984 C19.65082031 0.80125 20.73621094 0.83541016 21.85449219 0.87060547 C22.84046387 0.89566162 23.82643555 0.92071777 24.84228516 0.9465332 C27.23730469 1.24951172 27.23730469 1.24951172 29.23730469 3.24951172 C30.23386226 5.69853004 31.16101645 8.13687853 32.04980469 10.62451172 C34.22963972 16.58823647 36.53983167 22.46476768 39.01855469 28.31201172 C40.78580277 32.57153275 42.40205659 36.88600014 44.03417969 41.19873047 C45.1144275 43.93793029 46.29572139 46.5867926 47.54980469 49.24951172 C50.1390904 55.13425198 50.1390904 55.13425198 49.23730469 58.24951172 C47.12861286 60.85114449 44.87331113 63.18006775 42.23730469 65.24951172 C41.57730469 65.24951172 40.91730469 65.24951172 40.23730469 65.24951172 C40.01042969 65.80638672 39.78355469 66.36326172 39.54980469 66.93701172 C35.9875404 73.21338213 29.1087629 78.12365322 23.85253906 82.98974609 C20.79434061 85.83061065 17.79179004 88.69012997 14.88964844 91.69091797 C12.23730469 94.24951172 12.23730469 94.24951172 10.23730469 94.24951172 C9.24730469 96.22951172 9.24730469 96.22951172 8.23730469 98.24951172 C2.18279046 97.78377986 -3.03297179 96.28404596 -8.75878906 94.28466797 C-11.39149632 93.37742815 -14.02284105 92.57386049 -16.70019531 91.81201172 C-17.83098511 91.46106445 -17.83098511 91.46106445 -18.98461914 91.10302734 C-20.92485832 90.50692257 -22.87808453 89.95221031 -24.83935547 89.42944336 C-32.99090916 86.89112222 -36.6003142 83.98981385 -40.58886719 76.46044922 C-41.12060547 75.35958984 -41.65234375 74.25873047 -42.20019531 73.12451172 C-43.0384082 71.50802734 -43.0384082 71.50802734 -43.89355469 69.85888672 C-45.00508712 67.71087294 -46.10144796 65.55493487 -47.18188477 63.39111328 C-50.28762716 57.2189599 -53.60241955 51.15727964 -57.13378906 45.21826172 C-57.47990234 44.63560547 -57.82601563 44.05294922 -58.18261719 43.45263672 C-58.88196568 42.28213407 -59.58808564 41.11565897 -60.29980469 39.95263672 C-61.19788242 38.42779346 -61.98976671 36.84145139 -62.76269531 35.24951172 C-61.76269531 32.24951172 -61.76269531 32.24951172 -59.68847656 31.00341797 C-58.82609375 30.61025391 -57.96371094 30.21708984 -57.07519531 29.81201172 C-49.89720761 26.81923715 -49.89720761 26.81923715 -44.89160156 21.34716797 C-42.69470892 17.26505257 -38.30911617 15.12427109 -34.57128906 12.53857422 C-32.54417778 11.09376488 -30.57735091 9.58252756 -28.60644531 8.06201172 C-27.13790916 6.95756065 -25.6691595 5.85339342 -24.20019531 4.74951172 C-23.51691162 4.20875 -22.83362793 3.66798828 -22.12963867 3.11083984 C-14.90668023 -2.21449638 -8.55718239 -1.22399115 0 0 Z M-5.76269531 9.24951172 C-4.77269531 12.54951172 -3.78269531 15.84951172 -2.76269531 19.24951172 C2.26439975 17.67854451 6.26596938 14.62958123 10.23730469 11.24951172 C10.23730469 10.91951172 10.23730469 10.58951172 10.23730469 10.24951172 C4.8301088 9.32913795 -0.27591576 9.16509973 -5.76269531 9.24951172 Z M-16.76269531 10.24951172 C-17.18550781 10.67876953 -17.60832031 11.10802734 -18.04394531 11.55029297 C-19.97905044 13.46340826 -22.01611908 14.90160815 -24.26269531 16.43701172 C-28.07524605 19.07560988 -31.87220572 21.73151249 -35.63769531 24.43701172 C-36.52199219 25.06994141 -37.40628906 25.70287109 -38.31738281 26.35498047 C-40.66635124 28.17486815 -42.7143957 30.10117887 -44.76269531 32.24951172 C-39.44491026 33.65236299 -34.11664395 34.99148007 -28.76269531 36.24951172 C-27.83199219 36.46865234 -26.90128906 36.68779297 -25.94238281 36.91357422 C-21.89354271 37.63305452 -19.29316617 37.37271765 -15.88769531 35.18701172 C-12.81745149 32.60229482 -11.0245528 30.11395026 -9.76269531 26.24951172 C-9.76269531 20.37365915 -13.05184275 15.31110358 -15.76269531 10.24951172 C-16.09269531 10.24951172 -16.42269531 10.24951172 -16.76269531 10.24951172 Z M20.23730469 14.24951172 C19.47417969 15.01263672 18.71105469 15.77576172 17.92480469 16.56201172 C15.44044126 19.04637514 13.23062512 20.48422018 10.23730469 22.24951172 C8.88422156 23.56279828 7.54860391 24.89450253 6.23730469 26.24951172 C5.24730469 26.90951172 4.25730469 27.56951172 3.23730469 28.24951172 C3.90901275 32.05585742 4.96477033 35.60157988 6.23730469 39.24951172 C6.89730469 39.24951172 7.55730469 39.24951172 8.23730469 39.24951172 C8.34042969 40.17763672 8.44355469 41.10576172 8.54980469 42.06201172 C9.29099664 45.49844714 9.54620487 46.18030472 12.23730469 48.24951172 C20.60194349 51.37929002 29.41633163 53.02168397 38.23730469 54.24951172 C35.57864505 45.65925767 32.05584097 37.45521734 28.54980469 29.18701172 C27.93686655 27.73466768 27.32423383 26.2821947 26.71191406 24.82958984 C25.22389492 21.30140063 23.73175268 17.77498237 22.23730469 14.24951172 C21.57730469 14.24951172 20.91730469 14.24951172 20.23730469 14.24951172 Z M-9.88769531 38.74951172 C-11.16644531 39.90451172 -12.44519531 41.05951172 -13.76269531 42.24951172 C-11.78269531 46.20951172 -9.80269531 50.16951172 -7.76269531 54.24951172 C-3.63654495 53.21797413 -1.91671321 51.96547158 1.23730469 49.24951172 C0.58311369 44.17953153 -1.61733621 39.82960395 -3.76269531 35.24951172 C-6.70623888 35.24951172 -7.73848368 36.80828831 -9.88769531 38.74951172 Z M-47.76269531 41.24951172 C-43.2427453 50.50579233 -38.55154191 59.57532836 -33.32910156 68.45654297 C-31.76269531 71.24951172 -31.76269531 71.24951172 -30.76269531 74.24951172 C-27.31433845 72.69815304 -24.53277782 70.65798189 -21.57519531 68.31201172 C-20.25455078 67.27753906 -20.25455078 67.27753906 -18.90722656 66.22216797 C-16.52836961 64.35341869 -16.52836961 64.35341869 -15.76269531 61.24951172 C-17.23595756 55.36275871 -19.30165652 49.53215783 -23.76269531 45.24951172 C-31.03672769 41.79705168 -39.79594168 41.24951172 -47.76269531 41.24951172 Z M3.04980469 57.56201172 C2.375625 58.17689453 1.70144531 58.79177734 1.00683594 59.42529297 C-0.94614103 61.32840924 -0.94614103 61.32840924 -2.76269531 64.24951172 C-2.01463381 66.85276574 -1.19328719 69.15031899 -0.13769531 71.62451172 C0.12398438 72.28451172 0.38566406 72.94451172 0.65527344 73.62451172 C2.33791793 77.70512783 4.28316622 80.90836821 7.23730469 84.24951172 C9.13447114 82.52178916 11.03005773 80.79238438 12.92480469 79.06201172 C13.72047852 78.33788086 13.72047852 78.33788086 14.53222656 77.59912109 C17.0167322 75.32800858 19.45000431 73.0368121 21.83105469 70.65576172 C24.16595379 68.32086262 26.57211255 66.11886002 29.04980469 63.93701172 C29.84 63.23962891 30.63019531 62.54224609 31.44433594 61.82373047 C32.03601563 61.30423828 32.62769531 60.78474609 33.23730469 60.24951172 C32.74230469 59.25951172 32.74230469 59.25951172 32.23730469 58.24951172 C30.29529837 57.59341297 30.29529837 57.59341297 27.94042969 57.17919922 C27.06386719 57.00517578 26.18730469 56.83115234 25.28417969 56.65185547 C23.89972656 56.39082031 23.89972656 56.39082031 22.48730469 56.12451172 C21.57980469 55.94275391 20.67230469 55.76099609 19.73730469 55.57373047 C10.73591567 53.49351998 10.73591567 53.49351998 3.04980469 57.56201172 Z M-16.76269531 74.24951172 C-16.76269531 74.90951172 -16.76269531 75.56951172 -16.76269531 76.24951172 C-18.74269531 77.23951172 -18.74269531 77.23951172 -20.76269531 78.24951172 C-19.95271923 80.40160761 -19.95271923 80.40160761 -17.90722656 81.06591797 C-13.53919995 82.46339382 -9.330531 83.66389176 -4.76269531 84.24951172 C-6.44943449 79.75154058 -8.57943423 75.5206487 -10.76269531 71.24951172 C-13.56177664 71.24951172 -14.68991904 72.45310562 -16.76269531 74.24951172 Z " fill="#E4E3F8" transform="translate(358.7626953125,502.75048828125)"/>
<path d="M0 0 C10.89 0 21.78 0 33 0 C33 4.29 33 8.58 33 13 C31.35 13.33 29.7 13.66 28 14 C30.57730093 24.82754357 33.59350103 35.40200319 37 46 C39.97 35.44 42.94 24.88 46 14 C44.02 13.67 42.04 13.34 40 13 C40 8.71 40 4.42 40 0 C60.46 0 80.92 0 102 0 C102 18.81 102 37.62 102 57 C104.97 57.66 107.94 58.32 111 59 C111 62.96 111 66.92 111 71 C98.46 71 85.92 71 73 71 C73 67.04 73 63.08 73 59 C75.64 58.34 78.28 57.68 81 57 C81.33 42.81 81.66 28.62 82 14 C77.05 13.67 72.1 13.34 67 13 C66.5877417 14.58079346 66.1754834 16.16158691 65.75073242 17.7902832 C64.11997331 23.76241893 62.1196965 29.5462607 59.98828125 35.35546875 C59.42864937 36.89694328 59.42864937 36.89694328 58.85771179 38.46955872 C57.68007639 41.71038258 56.49640168 44.94896073 55.3125 48.1875 C54.50675891 50.40154625 53.70141666 52.6157377 52.89648438 54.83007812 C50.93559199 60.22173993 48.96928498 65.61139819 47 71 C40.4 71 33.8 71 27 71 C21.96129355 58.19896199 17.17951305 45.33324656 12.5625 32.375 C11.92014978 30.57804352 11.27757261 28.78116814 10.63476562 26.984375 C9.08724108 22.65717513 7.54273897 18.32890822 6 14 C3.03 13.505 3.03 13.505 0 13 C0 8.71 0 4.42 0 0 Z " fill="#FFFFFF" transform="translate(725,520)"/>
<path d="M0 0 C9.9 0 19.8 0 30 0 C30 19.47 30 38.94 30 59 C34.93064247 56.04161452 36.348421 54.48469232 39.3125 49.8125 C40.00988281 48.72582031 40.70726562 47.63914062 41.42578125 46.51953125 C41.94527344 45.68808594 42.46476563 44.85664062 43 44 C41.35 44 39.7 44 38 44 C38 39.71 38 35.42 38 31 C49.88 31 61.76 31 74 31 C74 34.96 74 38.92 74 43 C72.72125 43.20625 71.4425 43.4125 70.125 43.625 C62.66368649 46.01735766 58.85786362 53.63146324 55 60 C53.64405931 62.89671042 53.64405931 62.89671042 55.03222656 65.09716797 C55.56299805 65.88752441 56.09376953 66.67788086 56.640625 67.4921875 C57.21683594 68.36230469 57.79304687 69.23242188 58.38671875 70.12890625 C59.00160156 71.03511719 59.61648438 71.94132813 60.25 72.875 C61.44330048 74.6636676 62.63602671 76.45271845 63.828125 78.2421875 C64.3634082 79.0347998 64.89869141 79.82741211 65.45019531 80.64404297 C66.54476173 82.30796325 67.57998027 84.01165219 68.57055664 85.73950195 C69.79378093 88.13196541 69.79378093 88.13196541 72.04296875 88.92578125 C72.75066406 89.05339844 73.45835937 89.18101562 74.1875 89.3125 C75.445625 89.539375 76.70375 89.76625 78 90 C78 93.96 78 97.92 78 102 C66.78 102 55.56 102 44 102 C44 98.04 44 94.08 44 90 C44.99 90 45.98 90 47 90 C45.50670691 87.3349075 43.98390098 84.69652887 42.4375 82.0625 C42.01919922 81.30775391 41.60089844 80.55300781 41.16992188 79.77539062 C40.74130859 79.05673828 40.31269531 78.33808594 39.87109375 77.59765625 C39.48880615 76.93258057 39.10651855 76.26750488 38.71264648 75.58227539 C36.51907961 73.25522351 36.51907961 73.25522351 30 73 C30.33 77.95 30.66 82.9 31 88 C33.31 88.66 35.62 89.32 38 90 C38 93.96 38 97.92 38 102 C25.79 102 13.58 102 1 102 C1 98.04 1 94.08 1 90 C4.96 89.01 4.96 89.01 9 88 C9.33 63.58 9.66 39.16 10 14 C7.03 13.67 4.06 13.34 1 13 C0.67 12.67 0.34 12.34 0 12 C0 8.04 0 4.08 0 0 Z " fill="#FFFFFF" transform="translate(474,489)"/>
<path d="M0 0 C1.17042847 0.03401917 1.17042847 0.03401917 2.36450195 0.06872559 C5.25660496 0.1574085 8.14780954 0.27366643 11.0390625 0.38671875 C20.7534375 0.72703125 20.7534375 0.72703125 30.6640625 1.07421875 C30.9940625 19.88421875 31.3240625 38.69421875 31.6640625 58.07421875 C34.3040625 58.73421875 36.9440625 59.39421875 39.6640625 60.07421875 C39.6640625 64.03421875 39.6640625 67.99421875 39.6640625 72.07421875 C27.1240625 72.07421875 14.5840625 72.07421875 1.6640625 72.07421875 C1.6640625 68.11421875 1.6640625 64.15421875 1.6640625 60.07421875 C4.6340625 59.41421875 7.6040625 58.75421875 10.6640625 58.07421875 C10.6640625 43.88421875 10.6640625 29.69421875 10.6640625 15.07421875 C7.3640625 15.07421875 4.0640625 15.07421875 0.6640625 15.07421875 C0.3340625 16.39421875 0.0040625 17.71421875 -0.3359375 19.07421875 C-1.21636719 19.1 -2.09679687 19.12578125 -3.00390625 19.15234375 C-4.74607422 19.23742187 -4.74607422 19.23742187 -6.5234375 19.32421875 C-8.24626953 19.39382813 -8.24626953 19.39382813 -10.00390625 19.46484375 C-14.02223685 20.19973188 -15.52351181 21.123053 -18.3359375 24.07421875 C-18.85308717 26.87804688 -19.05821959 29.09829822 -19.04296875 31.90234375 C-19.05809006 32.65134949 -19.07321136 33.40035522 -19.08879089 34.17205811 C-19.13166309 36.55641798 -19.1405045 38.93951189 -19.1484375 41.32421875 C-19.17158249 42.94404406 -19.19694784 44.56383927 -19.22460938 46.18359375 C-19.28745587 50.14724727 -19.31979493 54.11011099 -19.3359375 58.07421875 C-16.3659375 58.73421875 -13.3959375 59.39421875 -10.3359375 60.07421875 C-10.3359375 64.03421875 -10.3359375 67.99421875 -10.3359375 72.07421875 C-22.8759375 72.07421875 -35.4159375 72.07421875 -48.3359375 72.07421875 C-48.3359375 68.11421875 -48.3359375 64.15421875 -48.3359375 60.07421875 C-45.6959375 59.41421875 -43.0559375 58.75421875 -40.3359375 58.07421875 C-40.0059375 43.88421875 -39.6759375 29.69421875 -39.3359375 15.07421875 C-42.6359375 14.74421875 -45.9359375 14.41421875 -49.3359375 14.07421875 C-49.3359375 9.78421875 -49.3359375 5.49421875 -49.3359375 1.07421875 C-39.7659375 1.07421875 -30.1959375 1.07421875 -20.3359375 1.07421875 C-20.0059375 3.38421875 -19.6759375 5.69421875 -19.3359375 8.07421875 C-18.7996875 7.31109375 -18.2634375 6.54796875 -17.7109375 5.76171875 C-12.52585373 -0.10561288 -7.32653152 -0.32490712 0 0 Z " fill="#FFFFFF" transform="translate(687.3359375,518.92578125)"/>
<path d="M0 0 C28.38 0 56.76 0 86 0 C86 8.58 86 17.16 86 26 C80.72 26 75.44 26 70 26 C69.505 20.555 69.505 20.555 69 15 C63.72 15 58.44 15 53 15 C53.33 36.78 53.66 58.56 54 81 C56.97 81.66 59.94 82.32 63 83 C63 86.96 63 90.92 63 95 C49.8 95 36.6 95 23 95 C23 91.04 23 87.08 23 83 C27.95 82.01 27.95 82.01 33 81 C33 59.22 33 37.44 33 15 C27.39 15 21.78 15 16 15 C16 18.63 16 22.26 16 26 C10.72 26 5.44 26 0 26 C0 17.42 0 8.84 0 0 Z " fill="#FFFFFF" transform="translate(551,496)"/>
<path d="M0 0 C4.83715195 3.53207878 7.50121318 8.74521092 8.66845703 14.50854492 C9.21862872 18.46301061 9.36899383 22.37828154 9.45703125 26.36328125 C9.47781235 27.15384918 9.49859344 27.94441711 9.52000427 28.75894165 C9.58498082 31.26499392 9.64414143 33.77114399 9.703125 36.27734375 C9.74635968 37.9843848 9.78997549 39.69141624 9.83398438 41.3984375 C9.9406084 45.56630801 10.04201941 49.73427614 10.140625 53.90234375 C11.790625 54.23234375 13.440625 54.56234375 15.140625 54.90234375 C15.140625 58.86234375 15.140625 62.82234375 15.140625 66.90234375 C7.220625 66.90234375 -0.699375 66.90234375 -8.859375 66.90234375 C-9.519375 65.25234375 -10.179375 63.60234375 -10.859375 61.90234375 C-11.45105469 62.32386719 -12.04273438 62.74539063 -12.65234375 63.1796875 C-13.44253906 63.72753906 -14.23273437 64.27539062 -15.046875 64.83984375 C-15.82417969 65.38511719 -16.60148438 65.93039062 -17.40234375 66.4921875 C-23.3248299 69.89126143 -31.05154096 69.86809876 -37.5546875 68.21875 C-44.15013249 65.84635859 -47.26013621 63.05928238 -50.9609375 57.140625 C-53.15092197 51.68470717 -52.86244898 44.13929061 -51.13671875 38.5703125 C-47.74314552 32.26403675 -42.85602119 29.63761588 -36.3359375 27.515625 C-30.35304712 26.03405751 -24.54134793 25.76705953 -18.421875 25.83984375 C-17.32456055 25.84661133 -17.32456055 25.84661133 -16.20507812 25.85351562 C-14.42314081 25.86516227 -12.64124637 25.88309184 -10.859375 25.90234375 C-11.25518597 23.77336048 -11.67672942 21.64914815 -12.109375 19.52734375 C-12.45742188 17.75230469 -12.45742188 17.75230469 -12.8125 15.94140625 C-13.56095487 12.87369864 -13.56095487 12.87369864 -15.65234375 11.5 C-18.16898946 10.81850125 -20.31502798 10.67159289 -22.921875 10.71484375 C-23.77910156 10.72128906 -24.63632812 10.72773437 -25.51953125 10.734375 C-28.01415468 10.81644341 -28.01415468 10.81644341 -30.859375 11.90234375 C-31.66150128 13.77621591 -31.66150128 13.77621591 -32.046875 15.96484375 C-32.315 17.26421875 -32.583125 18.56359375 -32.859375 19.90234375 C-38.139375 19.90234375 -43.419375 19.90234375 -48.859375 19.90234375 C-49.12731984 4.71322059 -49.12731984 4.71322059 -46.36328125 0.765625 C-44.22948781 -0.59536599 -42.27808898 -1.35994849 -39.859375 -2.09765625 C-39.1478125 -2.40574219 -38.43625 -2.71382812 -37.703125 -3.03125 C-25.74377611 -7.63887586 -10.94233022 -6.45965292 0 0 Z M-29.859375 39.90234375 C-32.32261569 43.59720478 -32.24929188 45.53527467 -31.859375 49.90234375 C-30.31674687 52.00592756 -29.17829183 52.74288534 -26.859375 53.90234375 C-20.75649354 53.96337256 -16.55736026 52.77818159 -11.859375 48.90234375 C-10.65664681 46.49688737 -10.75866028 44.95237422 -10.796875 42.27734375 C-10.80589844 41.46007812 -10.81492187 40.6428125 -10.82421875 39.80078125 C-10.83582031 39.17429687 -10.84742188 38.5478125 -10.859375 37.90234375 C-13.27634372 37.84823251 -15.69209287 37.80862097 -18.109375 37.77734375 C-19.13224609 37.75220703 -19.13224609 37.75220703 -20.17578125 37.7265625 C-23.89674038 37.69043668 -26.78178697 37.6894114 -29.859375 39.90234375 Z " fill="#FFFFFF" transform="translate(889.859375,524.09765625)"/>
<path d="M0 0 C0.60674561 0.29624268 1.21349121 0.59248535 1.83862305 0.89770508 C3.95029096 2.10075626 5.42656801 3.13985013 7 5 C7.85249853 8.47591471 7.66593699 11.76043032 7.4375 15.3125 C7.40591797 16.24384766 7.37433594 17.17519531 7.34179688 18.13476562 C7.25959997 20.42453663 7.13404767 22.71267869 7 25 C1.72 25 -3.56 25 -9 25 C-11.875 17.375 -11.875 17.375 -13 14 C-16.47498001 12.40419373 -20.26846518 11.6860767 -24.046875 12.37109375 C-27.10410773 13.52735485 -28.88985846 14.856816 -30.875 17.4375 C-33.12280182 22.55749304 -33.21395621 27.23530063 -33.25 32.75 C-33.270625 33.5234375 -33.29125 34.296875 -33.3125 35.09375 C-33.35423107 41.31167995 -32.42232258 47.01867991 -28.375 52 C-24.59278332 53.59251228 -21.0316622 53.64074631 -17 53 C-12.02354862 50.24706945 -11.91203501 48.73610502 -10 43 C-4.06 43 1.88 43 8 43 C8 50.54708007 7.2547653 55.34280168 2.19921875 61.0234375 C-5.56050324 68.16539521 -13.67015694 70.33104952 -24.0859375 70.21875 C-33.32731602 69.52502722 -40.41150974 65.96033949 -46.6875 59.1875 C-55.58131642 48.62486593 -54.88577638 35.11209561 -54 22 C-52.52922143 13.16539091 -47.62892694 6.85609638 -41 1 C-29.68498581 -6.51682841 -11.78910959 -6.54117528 0 0 Z " fill="#FFFFFF" transform="translate(465,523)"/>
<path d="M0 0 C9.9 0 19.8 0 30 0 C30.33 29.04 30.66 58.08 31 88 C33.64 88.66 36.28 89.32 39 90 C39 93.96 39 97.92 39 102 C26.46 102 13.92 102 1 102 C1 98.04 1 94.08 1 90 C5.455 89.01 5.455 89.01 10 88 C10 63.58 10 39.16 10 14 C6.7 13.67 3.4 13.34 0 13 C0 8.71 0 4.42 0 0 Z " fill="#FFFFFF" transform="translate(259,489)"/>
<path d="M0 0 C-2.49994205 6.13622139 -7.79017392 9.72754931 -13.125 13.3125 C-14.27160854 14.09000384 -15.41742756 14.86867314 -16.5625 15.6484375 C-17.13484375 16.03741211 -17.7071875 16.42638672 -18.296875 16.82714844 C-21.83835138 19.26597478 -25.29242203 21.82603695 -28.7578125 24.37109375 C-30.47721155 25.62020421 -32.23170029 26.82113352 -34 28 C-32.02 28.66 -30.04 29.32 -28 30 C-28 30.33 -28 30.66 -28 31 C-30.64 31 -33.28 31 -36 31 C-36 30.34 -36 29.68 -36 29 C-38.64 29.66 -41.28 30.32 -44 31 C-44.495 33.475 -44.495 33.475 -45 36 C-43.989375 35.9175 -42.97875 35.835 -41.9375 35.75 C-38.94960836 36.18886537 -38.126358 36.84031682 -36.22265625 39.24609375 C-34.35013286 42.44339559 -32.65128017 45.68282656 -31 49 C-30.37028006 50.24503881 -29.74006636 51.48982799 -29.109375 52.734375 C-27.91360064 55.10518954 -26.74070901 57.48345041 -25.578125 59.87109375 C-24.06870527 62.98273639 -24.06870527 62.98273639 -22.296875 65.72265625 C-21 68 -21 68 -21 71 C-20.02417969 70.2059375 -19.04835938 69.411875 -18.04296875 68.59375 C-16.75811868 67.56211855 -15.47294556 66.53088935 -14.1875 65.5 C-13.54490234 64.97535156 -12.90230469 64.45070313 -12.24023438 63.91015625 C-11.61826172 63.41386719 -10.99628906 62.91757812 -10.35546875 62.40625 C-9.78465576 61.94541016 -9.21384277 61.48457031 -8.62573242 61.00976562 C-7 60 -7 60 -4 60 C-2.47805175 62.41721193 -1.98738679 63.73512258 -2.125 66.625 C-3 69 -3 69 -5.0625 70.3125 C-5.701875 70.539375 -6.34125 70.76625 -7 71 C-7 71.66 -7 72.32 -7 73 C-8.5 74.625 -8.5 74.625 -10 76 C-9.41992188 76.19335938 -8.83984375 76.38671875 -8.2421875 76.5859375 C-6.62265324 77.12578225 -5.00421016 77.66890866 -3.38671875 78.21484375 C-1.50148403 78.83502735 0.40288152 79.39704194 2.3125 79.9375 C5.37550124 81.14845398 6.92437759 82.46312817 9 85 C9.33 85.99 9.66 86.98 10 88 C3.36859391 86.96617124 -3.02724323 85.31683078 -9.5 83.5625 C-11.31564453 83.12260742 -11.31564453 83.12260742 -13.16796875 82.67382812 C-19.24816609 80.9915733 -23.24372387 79.70956863 -26.61328125 74.171875 C-27.44706327 72.4660684 -28.24575795 70.74243724 -29 69 C-29.6647747 67.70923685 -30.33471105 66.42110791 -31.01171875 65.13671875 C-31.84123047 63.42935547 -31.84123047 63.42935547 -32.6875 61.6875 C-34.26758292 58.44378954 -35.825238 55.28593782 -37.70703125 52.20703125 C-39 50 -39 50 -39 48 C-40.34771484 47.71962891 -40.34771484 47.71962891 -41.72265625 47.43359375 C-45.93859559 45.58943435 -47.37862664 42.9708028 -49.4375 39.0625 C-49.80037109 38.42892578 -50.16324219 37.79535156 -50.53710938 37.14257812 C-51.55859375 35.28515625 -51.55859375 35.28515625 -53 32 C-52 29 -52 29 -49.99609375 27.82421875 C-49.15175781 27.44910156 -48.30742187 27.07398438 -47.4375 26.6875 C-44.01103908 25.06648308 -41.03283176 23.41658036 -38.0625 21.0625 C-35.14727322 18.76283903 -32.24067612 17.00793553 -28.9375 15.3125 C-22.51419749 11.93846188 -16.86879693 7.64518838 -11.08984375 3.29296875 C-6.91850573 0.19742461 -5.1408801 -0.11175826 0 0 Z " fill="#ADACC6" transform="translate(349,506)"/>
<path d="M0 0 C0 0.66 0 1.32 0 2 C0.556875 1.90460937 1.11375 1.80921875 1.6875 1.7109375 C7.3889729 0.88268299 11.49824076 1.29945623 17 3 C16.34 3.66 15.68 4.32 15 5 C15.8353125 5.06380859 15.8353125 5.06380859 16.6875 5.12890625 C20.22044396 5.79133324 22.95472563 6.53769906 25.13085938 9.58203125 C26.62405834 12.20940866 27.94666088 14.87862131 29.171875 17.64086914 C30.66752201 20.92186419 31.49501429 22.72947194 34.734375 24.46484375 C35.85585938 24.72974609 35.85585938 24.72974609 37 25 C37 25.66 37 26.32 37 27 C37.66 27 38.32 27 39 27 C39.495 29.475 39.495 29.475 40 32 C40.99 31.67 41.98 31.34 43 31 C46.64025802 38.33251973 48.33085142 43.90934932 47.91015625 52.0859375 C48.05668263 56.83848869 49.9133244 60.78938673 52 65 C48.07551791 66.3081607 45.65834767 65.093665 41.9375 63.75 C40.57465827 63.27477933 39.21137592 62.80082038 37.84765625 62.328125 C37.18523926 62.09673828 36.52282227 61.86535156 35.84033203 61.62695312 C33.53859354 60.84281085 31.21427837 60.16285977 28.875 59.5 C28.1523999 59.27642822 27.4297998 59.05285645 26.68530273 58.82250977 C24.7827127 58.23974535 22.86700199 57.69905589 20.94384766 57.18823242 C12.76163307 54.64293878 9.13953346 51.71216946 5.125 44.16210938 C4.58875 43.05673828 4.0525 41.95136719 3.5 40.8125 C2.64921875 39.18344727 2.64921875 39.18344727 1.78125 37.52148438 C0.1445281 34.36738488 -1.42808971 31.18675516 -3 28 C-3.51175781 27.02337402 -4.02351563 26.04674805 -4.55078125 25.04052734 C-5.25267578 23.69595459 -5.25267578 23.69595459 -5.96875 22.32421875 C-6.38576172 21.53490967 -6.80277344 20.74560059 -7.23242188 19.93237305 C-7.48572266 19.29468994 -7.73902344 18.65700684 -8 18 C-7.67 17.34 -7.34 16.68 -7 16 C1.65275231 23.34172923 8.71361598 36.96949848 11.79296875 47.78515625 C12.19128906 48.51605469 12.58960938 49.24695313 13 50 C15.61772286 50.72592296 15.61772286 50.72592296 19 51 C20.67554273 51.42982062 22.34313426 51.89123807 24.00390625 52.375 C24.90947266 52.63796875 25.81503906 52.9009375 26.74804688 53.171875 C27.67681641 53.44515625 28.60558594 53.7184375 29.5625 54 C31.41742381 54.54352985 33.2728771 55.08525667 35.12890625 55.625 C35.94431885 55.86476563 36.75973145 56.10453125 37.59985352 56.3515625 C40.05179343 57.01399281 42.50477428 57.52942257 45 58 C43.6910428 54.87802522 43.6910428 54.87802522 41 53 C39.75103803 50.82904487 38.60480139 48.68022377 37.5 46.4375 C37.02481934 45.48774292 37.02481934 45.48774292 36.54003906 44.51879883 C34.88414919 41.12144451 33.53295759 37.88629966 32.75 34.1875 C32.5025 33.135625 32.255 32.08375 32 31 C31.01 30.67 30.02 30.34 29 30 C27.63740713 27.52865919 26.44969209 25.1336462 25.3125 22.5625 C24.99216797 21.86833984 24.67183594 21.17417969 24.34179688 20.45898438 C22 15.30103945 22 15.30103945 22 13 C21.16082031 12.94392578 21.16082031 12.94392578 20.3046875 12.88671875 C10.34597454 12.07016833 0.54121717 9.95323388 -9 7 C-9 5.35 -9 3.7 -9 2 C-5.86501708 0.14223235 -3.62528568 -0.20140476 0 0 Z " fill="#E0E0F5" transform="translate(313,535)"/>
<path d="M0 0 C0.5878125 0.680625 0.5878125 0.680625 1.1875 1.375 C2.91926466 3.17919341 2.91926466 3.17919341 5.4375 3.625 C9.58073442 5.84819896 10.56920983 9.68503806 12 14 C12.6875 16.625 12.6875 16.625 12 19 C9.89130817 21.60163277 7.63600644 23.93055603 5 26 C4.34 26 3.68 26 3 26 C2.773125 26.556875 2.54625 27.11375 2.3125 27.6875 C-1.24976429 33.96387041 -8.12854179 38.8741415 -13.38476562 43.74023438 C-16.44296408 46.58109893 -19.44551464 49.44061825 -22.34765625 52.44140625 C-25 55 -25 55 -27 55 C-27.66 56.32 -28.32 57.64 -29 59 C-30.32 58.67 -31.64 58.34 -33 58 C-33 56.68 -33 55.36 -33 54 C-33.495 53.175 -33.99 52.35 -34.5 51.5 C-36.69326133 46.38239023 -36.23995458 41.49229381 -36 36 C-33.87961365 38.61514317 -31.86908256 41.19637616 -30 44 C-29.16855469 43.21753906 -28.33710938 42.43507813 -27.48046875 41.62890625 C-26.38304559 40.60652057 -25.28537648 39.58439887 -24.1875 38.5625 C-23.64029297 38.04623047 -23.09308594 37.52996094 -22.52929688 36.99804688 C-20.03940058 34.68923395 -18.25924458 33.08641486 -15 32 C-14.70867187 31.41476562 -14.41734375 30.82953125 -14.1171875 30.2265625 C-12.62992181 27.26243157 -10.59869874 25.56976535 -8.125 23.375 C-7.26132812 22.59898437 -6.39765625 21.82296875 -5.5078125 21.0234375 C-3.34497391 19.27834344 -1.46494149 18.20668684 1 17 C2.70921589 15.4587688 2.70921589 15.4587688 4 14 C3.79503906 13.32453125 3.59007812 12.6490625 3.37890625 11.953125 C3.10949219 11.06109375 2.84007812 10.1690625 2.5625 9.25 C2.29566406 8.36828125 2.02882813 7.4865625 1.75390625 6.578125 C1.11531506 4.39434165 0.53224167 2.21164502 0 0 Z " fill="#BCBAF3" transform="translate(396,542)"/>
<path d="M0 0 C0.66 0 1.32 0 2 0 C6 6.5 6 6.5 6 11 C6.66 11 7.32 11 8 11 C8.309375 12.0725 8.61875 13.145 8.9375 14.25 C10.42172736 17.83688279 12.16743998 18.9043921 15.6875 20.4375 C17.11617228 20.98208162 18.55134767 21.51104188 20 22 C20 22.33 20 22.66 20 23 C18.741875 23.020625 17.48375 23.04125 16.1875 23.0625 C15.47980469 23.07410156 14.77210938 23.08570313 14.04296875 23.09765625 C12 23 12 23 9 22 C9 23.32 9 24.64 9 26 C6.4375 27.875 6.4375 27.875 4.79296875 28.8515625 C2.11976426 30.56381113 -0.14116664 32.69601649 -2.484375 34.828125 C-4 36 -4 36 -6 36 C-6.495 33.525 -6.495 33.525 -7 31 C-7.66 31 -8.32 31 -9 31 C-9.33 30.34 -9.66 29.68 -10 29 C-10.76699219 28.7628125 -11.53398437 28.525625 -12.32421875 28.28125 C-16.07510408 26.48520564 -16.95206736 24.16412005 -18.8125 20.5 C-19.41707031 19.3346875 -20.02164062 18.169375 -20.64453125 16.96875 C-22 14 -22 14 -22 12 C-25.3 11.34 -28.6 10.68 -32 10 C-31.67 9.34 -31.34 8.68 -31 8 C-30.32195312 8.06960938 -29.64390625 8.13921875 -28.9453125 8.2109375 C-21.89356907 8.62114972 -18.21735378 7.34064834 -12.43359375 3.3984375 C-8.65459855 1.22688007 -5.30751831 1.20511992 -1 1 C-0.67 0.67 -0.34 0.34 0 0 Z M-10.125 10.5 C-11.40375 11.655 -12.6825 12.81 -14 14 C-12.02 17.96 -10.04 21.92 -8 26 C-3.87384964 24.96846241 -2.1540179 23.71595986 1 21 C0.34580901 15.93001981 -1.8546409 11.58009223 -4 7 C-6.94354357 7 -7.97578837 8.55877659 -10.125 10.5 Z " fill="#A8A9AE" transform="translate(359,531)"/>
<path d="M0 0 C3 1 3 1 4.38671875 3.72265625 C4.81597656 4.82480469 5.24523437 5.92695312 5.6875 7.0625 C6.34298828 8.71958984 6.34298828 8.71958984 7.01171875 10.41015625 C7.50091797 11.69212891 7.50091797 11.69212891 8 13 C8.66 10.69 9.32 8.38 10 6 C12.8471913 9.33551771 14.10258622 12.67848422 15.5 16.8125 C17.16643366 21.64062651 18.89550807 26.34796521 21 31 C19.125 31.625 19.125 31.625 17 32 C16.34 31.34 15.68 30.68 15 30 C15.30035156 30.68707031 15.60070312 31.37414062 15.91015625 32.08203125 C16.29042969 32.98308594 16.67070312 33.88414062 17.0625 34.8125 C17.63677734 36.15248047 17.63677734 36.15248047 18.22265625 37.51953125 C19 40 19 40 18 43 C17.34 43 16.68 43 16 43 C15.773125 43.639375 15.54625 44.27875 15.3125 44.9375 C14 47 14 47 11.76074219 47.68676758 C8.73107573 48.03051201 6.49013894 47.71952045 3.515625 47.07421875 C2.49855469 46.85443359 1.48148437 46.63464844 0.43359375 46.40820312 C-1.14228516 46.05145508 -1.14228516 46.05145508 -2.75 45.6875 C-3.81605469 45.46126953 -4.88210938 45.23503906 -5.98046875 45.00195312 C-11.83774499 43.70738315 -11.83774499 43.70738315 -14 43 C-14.33 42.34 -14.66 41.68 -15 41 C-14.67 40.34 -14.34 39.68 -14 39 C-4.02003266 38.59048766 4.31744487 39.60615487 14 42 C12.4390011 38.08273346 10.87591627 34.16630231 9.3125 30.25 C8.65991211 28.61224609 8.65991211 28.61224609 7.99414062 26.94140625 C7.55908203 25.85214844 7.12402344 24.76289062 6.67578125 23.640625 C6.23959473 22.54298828 5.8034082 21.44535156 5.35400391 20.31445312 C4.44325374 18.08503656 3.49676695 15.86992117 2.51708984 13.66992188 C1.8183374 12.09307617 1.8183374 12.09307617 1.10546875 10.484375 C0.6777417 9.54819336 0.25001465 8.61201172 -0.19067383 7.64746094 C-1.10496816 4.65662905 -0.86893161 2.96786999 0 0 Z " fill="#E3E2F5" transform="translate(382,514)"/>
<path d="M0 0 C1.29357422 0.06767578 1.29357422 0.06767578 2.61328125 0.13671875 C5.27416436 0.39559255 7.92441227 0.70167813 10.5703125 1.0859375 C16.70454172 1.79743117 22.89893661 2.02343753 29.0625 2.375 C29.4375 4.625 29.4375 4.625 29.0625 7.375 C24.89012608 11.39689486 21.29740732 11.81142646 15.78125 11.7265625 C14.49734375 11.67628906 14.49734375 11.67628906 13.1875 11.625 C12.30835938 11.60695313 11.42921875 11.58890625 10.5234375 11.5703125 C8.3693168 11.52348379 6.21576226 11.45174994 4.0625 11.375 C4.0625 10.715 4.0625 10.055 4.0625 9.375 C2.0825 9.375 0.1025 9.375 -1.9375 9.375 C-0.9475 7.725 0.0425 6.075 1.0625 4.375 C-5.68014411 5.61127783 -9.95275715 8.07733058 -15.375 12.1875 C-27.11704342 20.9426273 -27.11704342 20.9426273 -32.9375 23.375 C-33.5975 23.045 -34.2575 22.715 -34.9375 22.375 C-30.31651086 18.40372339 -25.49734422 14.85679244 -20.5 11.375 C-19.04284474 10.35434369 -17.58581215 9.33351222 -16.12890625 8.3125 C-15.07159302 7.57894287 -15.07159302 7.57894287 -13.99291992 6.83056641 C-12.64924517 5.87902954 -11.32264708 4.9027817 -10.0168457 3.89990234 C-6.60979843 1.30304787 -4.34231449 -0.27455566 0 0 Z " fill="#DAD8F4" transform="translate(347.9375,501.625)"/>
<path d="M0 0 C1.52194825 2.41721193 2.01261321 3.73512258 1.875 6.625 C1 9 1 9 -1.0625 10.3125 C-1.701875 10.539375 -2.34125 10.76625 -3 11 C-3 11.66 -3 12.32 -3 13 C-4.5 14.625 -4.5 14.625 -6 16 C-5.41992188 16.19335938 -4.83984375 16.38671875 -4.2421875 16.5859375 C-2.62265324 17.12578225 -1.00421016 17.66890866 0.61328125 18.21484375 C2.49851597 18.83502735 4.40288152 19.39704194 6.3125 19.9375 C9.37550124 21.14845398 10.92437759 22.46312817 13 25 C13.33 25.99 13.66 26.98 14 28 C8.3330866 27.18366072 2.84323427 25.82705532 -2.6875 24.375 C-4.1115918 24.04048828 -4.1115918 24.04048828 -5.56445312 23.69921875 C-12.24831885 21.91117824 -12.24831885 21.91117824 -14.34619141 19.36816406 C-15.51932534 16.87550399 -16.01024186 14.57149577 -15.9609375 11.8203125 C-14.60901688 9.25935717 -12.82448347 7.74705227 -10.625 5.875 C-9.83351563 5.19179688 -9.04203125 4.50859375 -8.2265625 3.8046875 C-3.53246753 0 -3.53246753 0 0 0 Z " fill="#B5B3E3" transform="translate(345,566)"/>
<path d="M0 0 C6.6 0 13.2 0 20 0 C20 4.95 20 9.9 20 15 C13.4 15 6.8 15 0 15 C0 10.05 0 5.1 0 0 Z " fill="#FFFFFF" transform="translate(807,489)"/>
<path d="M0 0 C6.6 0 13.2 0 20 0 C20 4.95 20 9.9 20 15 C13.4 15 6.8 15 0 15 C0 10.05 0 5.1 0 0 Z " fill="#FFFFFF" transform="translate(698,489)"/>
<path d="M0 0 C-2.76440263 6.78535191 -8.98837561 10.53970103 -14.84741211 14.46704102 C-18.56085175 16.97357392 -22.05835393 19.64028616 -25.5625 22.4375 C-31.04532532 26.50514179 -36.2756278 27.53058484 -43 28 C-40.57175149 21.01733323 -35.25140985 18.62647845 -29 15.375 C-22.56604089 11.96562807 -16.890017 7.66135736 -11.08984375 3.29296875 C-6.91850573 0.19742461 -5.1408801 -0.11175826 0 0 Z " fill="#A1A2AB" transform="translate(349,506)"/>
<path d="M0 0 C1.45792884 -0.05399736 2.91642712 -0.09279177 4.375 -0.125 C5.18710937 -0.14820313 5.99921875 -0.17140625 6.8359375 -0.1953125 C9 0 9 0 11 2 C11.93719102 4.3685373 12.80483315 6.71695199 13.625 9.125 C13.96917969 10.11306641 13.96917969 10.11306641 14.3203125 11.12109375 C14.88536242 12.74561226 15.44336277 14.37257971 16 16 C15.67 16.33 15.34 16.66 15 17 C14.63239269 19.32817964 14.29758419 21.6618385 14 24 C10.94616796 22.47308398 10.61913497 20.04783744 9.375 16.9375 C8.92898438 15.83277344 8.48296875 14.72804688 8.0234375 13.58984375 C7.68570312 12.73519531 7.34796875 11.88054688 7 11 C6.34 11 5.68 11 5 11 C4.67 11.66 4.34 12.32 4 13 C3.34 13 2.68 13 2 13 C1.67 13.99 1.34 14.98 1 16 C-0.55859375 17.38671875 -0.55859375 17.38671875 -2.4375 18.6875 C-3.05496094 19.12449219 -3.67242187 19.56148437 -4.30859375 20.01171875 C-6 21 -6 21 -8 21 C-8.33 21.99 -8.66 22.98 -9 24 C-11.0625 25.1875 -11.0625 25.1875 -13 26 C-12.27250926 21.47339093 -9.66156583 19.21869202 -6.59375 16 C-4.95345747 13.94159369 -4.41291936 12.56927601 -4 10 C-5.32 9.67 -6.64 9.34 -8 9 C-6.865625 8.443125 -5.73125 7.88625 -4.5625 7.3125 C-1.44531169 5.5777124 -1.44531169 5.5777124 -0.0625 2.25 C-0.041875 1.5075 -0.02125 0.765 0 0 Z " fill="#A1A2A6" transform="translate(377,504)"/>
<path d="M0 0 C4.12416052 3.31363186 4.94923767 8.31295689 6.5234375 13.1640625 C7.71145358 16.24533068 7.71145358 16.24533068 10.6640625 16.8984375 C11.43492187 16.93195312 12.20578125 16.96546875 13 17 C13.33 16.01 13.66 15.02 14 14 C18.455 15.98 18.455 15.98 23 18 C23 18.33 23 18.66 23 19 C21.741875 19.020625 20.48375 19.04125 19.1875 19.0625 C18.47980469 19.07410156 17.77210938 19.08570313 17.04296875 19.09765625 C15 19 15 19 12 18 C12 19.32 12 20.64 12 22 C9.4375 23.875 9.4375 23.875 7.79296875 24.8515625 C5.11976426 26.56381113 2.85883336 28.69601649 0.515625 30.828125 C-1 32 -1 32 -3 32 C-3.33 30.35 -3.66 28.7 -4 27 C-4.66 27 -5.32 27 -6 27 C-6.33 26.34 -6.66 25.68 -7 25 C-7.825 24.690625 -8.65 24.38125 -9.5 24.0625 C-10.7375 23.5365625 -10.7375 23.5365625 -12 23 C-12.33 22.01 -12.66 21.02 -13 20 C-11.02 20 -9.04 20 -7 20 C-6.67 19.34 -6.34 18.68 -6 18 C-5.67 18.99 -5.34 19.98 -5 21 C-1.67187429 20.42618522 -0.30157545 19.40619252 2 17 C2.66 17 3.32 17 4 17 C2.02 12.05 0.04 7.1 -2 2 C-1.34 1.34 -0.68 0.68 0 0 Z " fill="#B9B9EC" transform="translate(356,535)"/>
<path d="M0 0 C3 1 3 1 4.38671875 3.72265625 C4.81597656 4.82480469 5.24523437 5.92695312 5.6875 7.0625 C6.12449219 8.16722656 6.56148438 9.27195312 7.01171875 10.41015625 C7.33785156 11.26480469 7.66398437 12.11945312 8 13 C8.66 10.69 9.32 8.38 10 6 C12.8471913 9.33551771 14.10258622 12.67848422 15.5 16.8125 C17.16643366 21.64062651 18.89550807 26.34796521 21 31 C19.25 31.75 19.25 31.75 17 32 C12.92424971 29.1229998 12.09027733 25.72453508 11 21 C9.68 21.99 8.36 22.98 7 24 C5.62407798 20.94682321 4.27826374 17.88125974 2.9375 14.8125 C2.54755859 13.94818359 2.15761719 13.08386719 1.75585938 12.19335938 C1.39169922 11.35224609 1.02753906 10.51113281 0.65234375 9.64453125 C0.31195068 8.87471924 -0.02844238 8.10490723 -0.37915039 7.31176758 C-1.12277806 4.54282915 -0.747363 2.73750811 0 0 Z " fill="#D7D5F3" transform="translate(382,514)"/>
<path d="M0 0 C0.66 0 1.32 0 2 0 C1.45859731 3.86716207 -0.18412258 5.34690131 -3.0625 7.875 C-6.3959388 11.01124831 -6.3959388 11.01124831 -7.625 15.375 C-7.20882007 18.14057822 -7.20882007 18.14057822 -5 20 C-6.62339805 21.70884005 -8.29319053 23.37446717 -10 25 C-10.66 25 -11.32 25 -12 25 C-12.66 26.32 -13.32 27.64 -14 29 C-15.32 28.67 -16.64 28.34 -18 28 C-18 26.68 -18 25.36 -18 24 C-18.495 23.175 -18.99 22.35 -19.5 21.5 C-21.69326133 16.38239023 -21.23995458 11.49229381 -21 6 C-18.87961365 8.61514317 -16.86908256 11.19637616 -15 14 C-14.16855469 13.21753906 -13.33710938 12.43507813 -12.48046875 11.62890625 C-11.38304559 10.60652057 -10.28537648 9.58439887 -9.1875 8.5625 C-8.36668945 7.7880957 -8.36668945 7.7880957 -7.52929688 6.99804688 C-5.03940058 4.68923395 -3.25924458 3.08641486 0 2 C0 1.34 0 0.68 0 0 Z " fill="#B8B5E5" transform="translate(381,572)"/>
<path d="M0 0 C0.391875 0.45375 0.78375 0.9075 1.1875 1.375 C2.91926466 3.17919341 2.91926466 3.17919341 5.4375 3.625 C9.58073442 5.84819896 10.56920983 9.68503806 12 14 C12.6875 16.625 12.6875 16.625 12 19 C10.00226064 21.84384073 7.92158745 24.09927612 5 26 C1.0625 25.9375 1.0625 25.9375 -2 25 C-1.071875 24.01 -1.071875 24.01 -0.125 23 C2.38195014 19.46077627 3.92497558 16.3439139 4 12 C3.19586812 9.22615113 2.16773637 6.7164162 0.9453125 4.1015625 C0 2 0 2 0 0 Z " fill="#A2A2A8" transform="translate(396,542)"/>
<path d="M0 0 C0.495 1.485 0.495 1.485 1 3 C3.475 3.495 3.475 3.495 6 4 C6 4.33 6 4.66 6 5 C5.030625 4.87238281 4.06125 4.74476563 3.0625 4.61328125 C-8.78032274 3.55468826 -15.19163664 7.39026768 -24.28320312 14.640625 C-26.51559608 16.40825355 -28.8284412 18.03146359 -31.1875 19.625 C-31.82042969 20.07101562 -32.45335937 20.51703125 -33.10546875 20.9765625 C-35.36848418 22.19905743 -37.47067512 22.60684069 -40 23 C-37.19866152 18.85889095 -34.10257224 16.56074069 -29.953125 13.95703125 C-27.54374298 12.36033761 -25.27472904 10.70639967 -22.984375 8.94921875 C-22.25822998 8.40402588 -21.53208496 7.85883301 -20.78393555 7.29711914 C-19.33144054 6.20379698 -17.89200877 5.09284301 -16.46801758 3.96264648 C-10.97234694 -0.11109885 -6.76082253 -0.70871829 0 0 Z " fill="#ADAED1" transform="translate(353,502)"/>
<path d="M0 0 C0.66 0.33 1.32 0.66 2 1 C1.67 1.66 1.34 2.32 1 3 C2.258125 2.649375 3.51625 2.29875 4.8125 1.9375 C7.94716388 1.06390515 8.78282108 0.92760703 12 2 C11.01 2.495 11.01 2.495 10 3 C11.98 3.66 13.96 4.32 16 5 C16 5.33 16 5.66 16 6 C13.36 6 10.72 6 8 6 C8 5.34 8 4.68 8 4 C5.36 4.66 2.72 5.32 0 6 C-1.0638672 9.1916016 -1.35263165 11.23999604 0.08203125 14.33203125 C1.01423003 15.92164845 1.97598635 17.49436163 2.96875 19.046875 C3.47921875 20.01367188 3.47921875 20.01367188 4 21 C3.67 21.66 3.34 22.32 3 23 C-1.70957201 20.71854643 -3.46820497 18.08633903 -5.875 13.5 C-6.49117188 12.3553125 -7.10734375 11.210625 -7.7421875 10.03125 C-9 7 -9 7 -8 4 C-6.22265625 2.796875 -6.22265625 2.796875 -4.0625 1.75 C-3.35222656 1.39421875 -2.64195312 1.0384375 -1.91015625 0.671875 C-1.27980469 0.45015625 -0.64945312 0.2284375 0 0 Z " fill="#C0BDED" transform="translate(305,531)"/>
<path d="M0 0 C3.37590284 -0.23690546 4.97454848 -0.34875898 8 1 C10.91373088 4.71099188 12.94365576 8.76757503 15 13 C15.85078125 14.60681641 15.85078125 14.60681641 16.71875 16.24609375 C18 19 18 19 17.6875 21.375 C17.3471875 22.179375 17.3471875 22.179375 17 23 C15.29115995 21.37660195 13.62553283 19.70680947 12 18 C12 17.34 12 16.68 12 16 C11.25363281 15.81695313 10.50726563 15.63390625 9.73828125 15.4453125 C5.98279418 13.46310107 4.85538337 10.59368037 3.1875 6.875 C2.87619141 6.21628906 2.56488281 5.55757812 2.24414062 4.87890625 C1.48135927 3.25946276 0.73866014 1.63058695 0 0 Z " fill="#A2A3AA" transform="translate(303,542)"/>
<path d="M0 0 C2.97 0 5.94 0 9 0 C6.59757773 3.17462943 4.38286724 5.85751741 1 8 C0.34 8 -0.32 8 -1 8 C-0.47731534 10.76276177 0.10869587 13.3260876 1 16 C-0.12073862 16.83905565 -1.24674547 17.67107831 -2.375 18.5 C-3.00148438 18.9640625 -3.62796875 19.428125 -4.2734375 19.90625 C-6 21 -6 21 -8 21 C-8.33 21.99 -8.66 22.98 -9 24 C-11.0625 25.1875 -11.0625 25.1875 -13 26 C-12.27250926 21.47339093 -9.66156583 19.21869202 -6.59375 16 C-4.95345747 13.94159369 -4.41291936 12.56927601 -4 10 C-5.32 9.67 -6.64 9.34 -8 9 C-6.865625 8.443125 -5.73125 7.88625 -4.5625 7.3125 C-1.44531169 5.5777124 -1.44531169 5.5777124 -0.0625 2.25 C-0.041875 1.5075 -0.02125 0.765 0 0 Z " fill="#ABAAC9" transform="translate(377,504)"/>
<path d="M0 0 C1.875 0.25 1.875 0.25 4 1 C6.02755186 3.93995019 6 5.27704003 6 9 C6.66 9 7.32 9 8 9 C9.31626692 12.61973402 10 15.09567131 10 19 C8.02 19.33 6.04 19.66 4 20 C3.731875 18.824375 3.46375 17.64875 3.1875 16.4375 C2.48261818 13.54646296 1.59938178 10.99251985 0.3125 8.3125 C-1.05665093 4.85702384 -1.15342402 3.46027206 0 0 Z " fill="#A6A7AA" transform="translate(359,533)"/>
<path d="M0 0 C0 3 0 3 -2.1171875 5.32421875 C-3.06851562 6.20722656 -4.01984375 7.09023438 -5 8 C-6.00295403 8.96448006 -7.00555134 9.92933119 -8.0078125 10.89453125 C-9.04573665 11.86840215 -10.08480945 12.84105022 -11.125 13.8125 C-11.64964844 14.31458984 -12.17429687 14.81667969 -12.71484375 15.33398438 C-16.65518707 19 -16.65518707 19 -20 19 C-20 18.01 -20 17.02 -20 16 C-19.34 16 -18.68 16 -18 16 C-17.74734375 15.43410156 -17.4946875 14.86820313 -17.234375 14.28515625 C-13.92632937 8.16108443 -7.56752955 0 0 0 Z " fill="#E4E3F5" transform="translate(397,569)"/>
<path d="M0 0 C2.8471913 3.33551771 4.10258622 6.67848422 5.5 10.8125 C7.16643366 15.64062651 8.89550807 20.34796521 11 25 C9.68 25.33 8.36 25.66 7 26 C-1.86244982 5.61286247 -1.86244982 5.61286247 0 0 Z " fill="#DCDAF5" transform="translate(392,520)"/>
<path d="M0 0 C1.76462683 3.08809695 2 4.23312136 2 8 C1.34 8 0.68 8 0 8 C-0.66 7.01 -1.32 6.02 -2 5 C-2.84304688 5.6496875 -3.68609375 6.299375 -4.5546875 6.96875 C-5.66126681 7.81275117 -6.76804815 8.65648749 -7.875 9.5 C-8.43058594 9.92925781 -8.98617188 10.35851562 -9.55859375 10.80078125 C-13.7734375 14 -13.7734375 14 -16 14 C-15.47948372 9.99740929 -13.63217964 8.43450889 -10.625 5.875 C-9.83351563 5.19179688 -9.04203125 4.50859375 -8.2265625 3.8046875 C-3.53246753 0 -3.53246753 0 0 0 Z " fill="#B8B8F2" transform="translate(345,566)"/>
<path d="M0 0 C7.75493514 -0.09928082 15.31068715 -0.06059488 23 1 C22.67 2.32 22.34 3.64 22 5 C19.27001324 4.88562349 16.5415418 4.75888594 13.8125 4.625 C13.04357422 4.5940625 12.27464844 4.563125 11.48242188 4.53125 C7.26102289 4.31383889 3.85927672 3.90256928 0 2 C0 1.34 0 0.68 0 0 Z " fill="#D0D0F3" transform="translate(354,503)"/>
<path d="M0 0 C1.98 0 3.96 0 6 0 C10.07877462 7.0547046 10.07877462 7.0547046 9.75 11 C9.5025 11.66 9.255 12.32 9 13 C7.171875 12.87890625 7.171875 12.87890625 5 12 C3.515625 9.27734375 3.515625 9.27734375 2.25 5.9375 C1.82203125 4.83277344 1.3940625 3.72804688 0.953125 2.58984375 C0.63859375 1.73519531 0.3240625 0.88054687 0 0 Z " fill="#A4A5AC" transform="translate(346,511)"/>
<path d="M0 0 C0.66 0.33 1.32 0.66 2 1 C1.67 1.66 1.34 2.32 1 3 C2.258125 2.649375 3.51625 2.29875 4.8125 1.9375 C7.94716388 1.06390515 8.78282108 0.92760703 12 2 C11.01 2.495 11.01 2.495 10 3 C11.98 3.66 13.96 4.32 16 5 C16 5.33 16 5.66 16 6 C13.36 6 10.72 6 8 6 C8 5.34 8 4.68 8 4 C0.08 5.485 0.08 5.485 -8 7 C-8 6.01 -8 5.02 -8 4 C-6.71349294 3.30289269 -5.42059335 2.61757124 -4.125 1.9375 C-3.40570313 1.55464844 -2.68640625 1.17179688 -1.9453125 0.77734375 C-1.30335938 0.52082031 -0.66140625 0.26429688 0 0 Z " fill="#BBBAE8" transform="translate(305,531)"/>
<path d="M0 0 C0.66 0 1.32 0 2 0 C2.33 1.65 2.66 3.3 3 5 C3.99 4.67 4.98 4.34 6 4 C9.40858327 11.1945454 11.90619511 16.97370048 11 25 C10.34 25.66 9.68 26.32 9 27 C8.89042969 26.29875 8.78085937 25.5975 8.66796875 24.875 C7.19266027 16.04713787 5.07247278 9.34633989 0 2 C0 1.34 0 0.68 0 0 Z " fill="#CCC9F9" transform="translate(350,562)"/>
<path d="M0 0 C2.60045875 2.3024119 3.84739183 4.49896677 5.1875 7.6875 C5.53167969 8.49574219 5.87585938 9.30398438 6.23046875 10.13671875 C6.48441406 10.75160156 6.73835938 11.36648438 7 12 C8.65 11.67 10.3 11.34 12 11 C11.67 11.99 11.34 12.98 11 14 C8.1875 14.6875 8.1875 14.6875 5 15 C2.30434787 12.93782612 1.13510225 10.51343703 -0.1875 7.4375 C-0.53167969 6.65246094 -0.87585938 5.86742187 -1.23046875 5.05859375 C-2 3 -2 3 -2 1 C-1.34 0.67 -0.68 0.34 0 0 Z " fill="#CAC7F3" transform="translate(345,511)"/>
<path d="M0 0 C1.75 0.125 1.75 0.125 4 1 C6.25 4.0625 6.25 4.0625 8 7 C8.99 6.67 9.98 6.34 11 6 C11 10.29 11 14.58 11 19 C7.84598469 17.42299234 6.97082505 14.24915466 5.5 11.1875 C5.19191406 10.55779297 4.88382812 9.92808594 4.56640625 9.27929688 C3.70687966 7.52150966 2.85325321 5.76084094 2 4 C1.33588883 2.66539198 0.67068776 1.3313152 0 0 Z " fill="#ACAEDB" transform="translate(311,557)"/>
<path d="M0 0 C0.66 0.33 1.32 0.66 2 1 C1.3503125 1.556875 1.3503125 1.556875 0.6875 2.125 C-1.46152985 4.51281095 -2.64757984 7.1019568 -4 10 C-4.33 9.34 -4.66 8.68 -5 8 C-5.86625 8.495 -6.7325 8.99 -7.625 9.5 C-11.15088689 11.06706084 -13.20990882 11.1684485 -17 11 C-17.99 11.33 -18.98 11.66 -20 12 C-19.50168276 8.31245243 -18.89932357 6.39509338 -16 4 C-16 5.65 -16 7.3 -16 9 C-12.08434122 8.43864007 -9.55237392 7.31225965 -6.3125 5.0625 C-5.54550781 4.53785156 -4.77851563 4.01320313 -3.98828125 3.47265625 C-1.91278105 2.01101956 -1.91278105 2.01101956 0 0 Z " fill="#C4C1F5" transform="translate(366,523)"/>
<path d="M0 0 C-1.37967535 4.84156012 -3.6482501 6.5594119 -7.8125 9.25 C-9.36904297 10.27867187 -9.36904297 10.27867187 -10.95703125 11.328125 C-13.76378884 12.87022031 -15.85116245 13.60421266 -19 14 C-16.05219255 9.6423716 -12.58516405 7.19607996 -8.21875 4.4296875 C-5.96411187 3.02359365 -5.96411187 3.02359365 -3.84375 1.3203125 C-2 0 -2 0 0 0 Z " fill="#E1DEF5" transform="translate(332,511)"/>
<path d="M0 0 C2.49560036 2.24460607 3.8705484 4.38520597 5.25 7.4375 C5.60578125 8.19933594 5.9615625 8.96117187 6.328125 9.74609375 C7.08338373 12.27972334 6.87351072 13.54185126 6 16 C5.34 16 4.68 16 4 16 C2.94162878 13.9041858 1.90373413 11.79801958 0.875 9.6875 C0.29492188 8.51574219 -0.28515625 7.34398437 -0.8828125 6.13671875 C-1.25148438 5.10160156 -1.62015625 4.06648437 -2 3 C-1.34 2.01 -0.68 1.02 0 0 Z " fill="#DDDCF9" transform="translate(356,535)"/>
<path d="M0 0 C0.33 0.66 0.66 1.32 1 2 C-0.423125 2.928125 -0.423125 2.928125 -1.875 3.875 C-4.94445109 5.81970969 -4.94445109 5.81970969 -7 8 C-8.32 8 -9.64 8 -11 8 C-10.64987213 5.40905378 -10.26229035 3.4225789 -8.875 1.1875 C-5.99131838 -0.63883169 -3.32254207 -0.18806842 0 0 Z " fill="#AAAAB7" transform="translate(367,555)"/>
<path d="M0 0 C4.95 1.98 4.95 1.98 10 4 C10 4.33 10 4.66 10 5 C8.741875 5.020625 7.48375 5.04125 6.1875 5.0625 C5.47980469 5.07410156 4.77210938 5.08570313 4.04296875 5.09765625 C2 5 2 5 -1 4 C-1 4.66 -1 5.32 -1 6 C-3.31 6 -5.62 6 -8 6 C-7.67 4.35 -7.34 2.7 -7 1 C-4.69 1.66 -2.38 2.32 0 3 C0 2.01 0 1.02 0 0 Z " fill="#B2B3D0" transform="translate(369,549)"/>
<path d="M0 0 C0.125 3.375 0.125 3.375 0 7 C-0.66 7.66 -1.32 8.32 -2 9 C-1.34 9.66 -0.68 10.32 0 11 C-0.804375 11.268125 -1.60875 11.53625 -2.4375 11.8125 C-3.283125 12.204375 -4.12875 12.59625 -5 13 C-5.33 13.99 -5.66 14.98 -6 16 C-8.0625 17.1875 -8.0625 17.1875 -10 18 C-9.27250926 13.47339093 -6.66156583 11.21869202 -3.59375 8 C-1.95345747 5.94159369 -1.41291936 4.56927601 -1 2 C-2.32 1.67 -3.64 1.34 -5 1 C-3 0 -3 0 0 0 Z " fill="#BCBAEB" transform="translate(374,512)"/>
<path d="M0 0 C1.11375 0.4640625 1.11375 0.4640625 2.25 0.9375 C4.84779443 2.0575253 4.84779443 2.0575253 7.125 2.3125 C9 3 9 3 10.8125 5.3125 C12 8 12 8 11.6875 10.3125 C11.460625 10.869375 11.23375 11.42625 11 12 C9.29115995 10.37660195 7.62553283 8.70680947 6 7 C6 6.34 6 5.68 6 5 C5.195625 4.731875 4.39125 4.46375 3.5625 4.1875 C2.716875 3.795625 1.87125 3.40375 1 3 C0.67 2.01 0.34 1.02 0 0 Z " fill="#A6A7C0" transform="translate(309,553)"/>
<path d="M0 0 C0.598125 0.309375 1.19625 0.61875 1.8125 0.9375 C4.08956772 2.10209704 4.08956772 2.10209704 7 3 C9 6 9 6 9 9 C6.1875 8.8125 6.1875 8.8125 3 8 C0.72136847 5.11373339 0 3.6952982 0 0 Z " fill="#A4A4AC" transform="translate(323,577)"/>
<path d="M0 0 C0.33 0 0.66 0 1 0 C1.25 2.25 1.25 2.25 1 5 C-1 7.3125 -1 7.3125 -3 9 C-1.35 9.33 0.3 9.66 2 10 C1.34 11.32 0.68 12.64 0 14 C-0.33 13.01 -0.66 12.02 -1 11 C-2.32 11 -3.64 11 -5 11 C-5 10.34 -5 9.68 -5 9 C-5.66 8.67 -6.32 8.34 -7 8 C-5.85760183 6.66372225 -4.71098945 5.33104612 -3.5625 4 C-2.92441406 3.2575 -2.28632813 2.515 -1.62890625 1.75 C-1.09136719 1.1725 -0.55382812 0.595 0 0 Z " fill="#AFAFDF" transform="translate(398,557)"/>
<path d="M0 0 C2.39986341 2.39986341 2.68340204 4.4546329 3.42578125 7.69140625 C4.38213261 11.53632908 5.70120406 15.25946769 7 19 C6.01 18.67 5.02 18.34 4 18 C2.92294546 15.71273857 2.05825711 13.56683676 1.25 11.1875 C1.01667969 10.55779297 0.78335937 9.92808594 0.54296875 9.27929688 C-0.65355358 5.86526759 -1.41534366 3.42616728 0 0 Z " fill="#C3BDF0" transform="translate(391,524)"/>
<path d="M0 0 C4.89969605 5.6899696 4.89969605 5.6899696 5 9 C3.5625 12.25 3.5625 12.25 2 15 C-0.35119399 11.47320901 -0.21443452 9.97120515 -0.125 5.8125 C-0.10695313 4.72582031 -0.08890625 3.63914062 -0.0703125 2.51953125 C-0.04710937 1.68808594 -0.02390625 0.85664062 0 0 Z " fill="#B9B9F4" transform="translate(360,578)"/>
<path d="M0 0 C-0.639375 0.268125 -1.27875 0.53625 -1.9375 0.8125 C-4.33131686 1.88667752 -4.33131686 1.88667752 -5 5 C-2.525 5.99 -2.525 5.99 0 7 C0 7.66 0 8.32 0 9 C-4.455 8.01 -4.455 8.01 -9 7 C-9 5.35 -9 3.7 -9 2 C-5.86501708 0.14223235 -3.62528568 -0.20140476 0 0 Z " fill="#D1D1F2" transform="translate(313,535)"/>
<path d="M0 0 C1.41791408 0.45445964 2.83428046 0.91374944 4.25 1.375 C5.43335938 1.75785156 5.43335938 1.75785156 6.640625 2.1484375 C8.86627958 2.95173667 10.90931672 3.89711662 13 5 C7.0819503 6.32854177 4.22270869 5.66464729 -1 3 C-0.67 2.01 -0.34 1.02 0 0 Z " fill="#BDBADF" transform="translate(339,582)"/>
<path d="M0 0 C0.66 0.33 1.32 0.66 2 1 C-1.72346836 5.42094803 -5.29521038 9.57833482 -10 13 C-8.48446596 9.52224821 -6.4226544 7.0442016 -3.875 4.25 C-3.15054687 3.45078125 -2.42609375 2.6515625 -1.6796875 1.828125 C-0.84824219 0.92320312 -0.84824219 0.92320312 0 0 Z M-12 13 C-11.01 13.495 -11.01 13.495 -10 14 C-10.66 14.66 -11.32 15.32 -12 16 C-12 15.01 -12 14.02 -12 13 Z " fill="#D8D4F5" transform="translate(389,572)"/>
<path d="M0 0 C0.66 0 1.32 0 2 0 C1.52753358 4.25219775 -0.77272377 6.37314725 -4 9 C-6.16796875 8.63671875 -6.16796875 8.63671875 -8 8 C-7.0479279 6.99403703 -6.08812654 5.99538437 -5.125 5 C-4.59132813 4.443125 -4.05765625 3.88625 -3.5078125 3.3125 C-2 2 -2 2 0 2 C0 1.34 0 0.68 0 0 Z " fill="#B5B3D3" transform="translate(381,572)"/>
<path d="M0 0 C3.96 0 7.92 0 12 0 C12 0.66 12 1.32 12 2 C6.95531271 4.21474076 4.14089313 3.85072153 -1 2 C-0.67 1.34 -0.34 0.68 0 0 Z " fill="#BDBCDC" transform="translate(328,539)"/>
<path d="M0 0 C0.66 0.33 1.32 0.66 2 1 C1 3.4375 1 3.4375 -1 6 C-3.72714162 6.76381481 -6.14167178 6.85942648 -9 7 C-8 4 -8 4 -6.22265625 2.796875 C-5.50980469 2.45140625 -4.79695313 2.1059375 -4.0625 1.75 C-3.35222656 1.39421875 -2.64195312 1.0384375 -1.91015625 0.671875 C-1.27980469 0.45015625 -0.64945312 0.2284375 0 0 Z " fill="#ADACD3" transform="translate(305,531)"/>
<path d="M0 0 C0.66 0 1.32 0 2 0 C2 0.66 2 1.32 2 2 C-0.33366933 4.01178391 -2.04785514 5.01595171 -5 6 C-7.3406065 5.72230092 -9.67624308 5.39460023 -12 5 C-10.59455569 2.9796738 -9.47923008 2.09526863 -7.0546875 1.61328125 C-5.03814521 1.39283487 -3.01912323 1.19539902 -1 1 C-0.67 0.67 -0.34 0.34 0 0 Z " fill="#AAACCD" transform="translate(359,531)"/>
<path d="M0 0 C0.66 0.33 1.32 0.66 2 1 C2 1.66 2 2.32 2 3 C0.25 4.7265625 0.25 4.7265625 -2 6.625 C-2.7425 7.25664063 -3.485 7.88828125 -4.25 8.5390625 C-4.8275 9.02117188 -5.405 9.50328125 -6 10 C-6.66 9.34 -7.32 8.68 -8 8 C-5.36 5.36 -2.72 2.72 0 0 Z " fill="#B1B2F1" transform="translate(381,576)"/>
<path d="M0 0 C0.66 0.99 1.32 1.98 2 3 C1.67 3.33 1.34 3.66 1 4 C0.63239269 6.32817964 0.29758419 8.6618385 0 11 C-2 10 -2 10 -3.125 6.9375 C-3.41375 5.968125 -3.7025 4.99875 -4 4 C-3.34 4 -2.68 4 -2 4 C-1.34 2.68 -0.68 1.36 0 0 Z " fill="#A3A5BC" transform="translate(391,517)"/>
<path d="M0 0 C0.391875 0.45375 0.78375 0.9075 1.1875 1.375 C2.96382139 3.17366094 2.96382139 3.17366094 5.625 3.9375 C8 5 8 5 8.8125 7.125 C8.874375 7.74375 8.93625 8.3625 9 9 C5.625 8.4375 5.625 8.4375 2 7 C0.5625 3.375 0.5625 3.375 0 0 Z " fill="#ABADCA" transform="translate(396,542)"/>
<path d="M0 0 C3.35212973 3.08748791 5.85053527 5.51708756 7 10 C6.5390625 12.15234375 6.5390625 12.15234375 6 14 C4.99515796 12.04414675 3.99626195 10.08523763 3 8.125 C2.1646875 6.48917969 2.1646875 6.48917969 1.3125 4.8203125 C0 2 0 2 0 0 Z " fill="#AFB3EF" transform="translate(314,561)"/>
<path d="M0 0 C3 3.625 3 3.625 3 7 C0 9 0 9 -2.1875 8.625 C-2.785625 8.41875 -3.38375 8.2125 -4 8 C-3.525625 7.608125 -3.05125 7.21625 -2.5625 6.8125 C-0.64820367 4.59191626 -0.38733012 2.86624291 0 0 Z " fill="#A7A9C0" transform="translate(375,513)"/>
<path d="M0 0 C0 0.99 0 1.98 0 3 C-2.25 5.25 -2.25 5.25 -5 7 C-6.32 6.67 -7.64 6.34 -9 6 C-6.03 4.02 -3.06 2.04 0 0 Z " fill="#A3A7C2" transform="translate(333,513)"/>
<path d="M0 0 C-1.01176437 3.40320742 -1.64843582 4.75725331 -4.625 6.8125 C-5.40875 7.204375 -6.1925 7.59625 -7 8 C-4.73913043 0 -4.73913043 0 0 0 Z " fill="#D4D2F3" transform="translate(332,511)"/>
<path d="M0 0 C0.99 0 1.98 0 3 0 C4.76462683 3.08809695 5 4.23312136 5 8 C4.34 8 3.68 8 3 8 C0 2.25 0 2.25 0 0 Z " fill="#BEBFF8" transform="translate(342,566)"/>
<path d="M0 0 C2.64 0.33 5.28 0.66 8 1 C8.33 1.99 8.66 2.98 9 4 C6.36 3.67 3.72 3.34 1 3 C0.67 2.01 0.34 1.02 0 0 Z " fill="#A0A2B8" transform="translate(303,542)"/>
<path d="M0 0 C0.99 0.33 1.98 0.66 3 1 C2.01 1.33 1.02 1.66 0 2 C-0.33 2.99 -0.66 3.98 -1 5 C-3.0625 6.1875 -3.0625 6.1875 -5 7 C-4.6189482 4.23737447 -4.16402868 3.15856106 -2.125 1.1875 C-1.42375 0.795625 -0.7225 0.40375 0 0 Z " fill="#A5A7DB" transform="translate(369,523)"/>
<path d="M0 0 C2.31 0 4.62 0 7 0 C5.625 2 5.625 2 4 4 C3.34 4 2.68 4 2 4 C1.67 4.99 1.34 5.98 1 7 C0.67 4.69 0.34 2.38 0 0 Z " fill="#D7D6F8" transform="translate(349,525)"/>
<path d="M0 0 C2.64 0.33 5.28 0.66 8 1 C7.34 1.66 6.68 2.32 6 3 C6.66 3.66 7.32 4.32 8 5 C6.35 4.67 4.7 4.34 3 4 C3 3.34 3 2.68 3 2 C2.01 1.67 1.02 1.34 0 1 C0 0.67 0 0.34 0 0 Z " fill="#CECDF5" transform="translate(322,537)"/>
<path d="M0 0 C0.66 0.33 1.32 0.66 2 1 C-0.00979059 4.01468588 -0.70736015 4.83789182 -4 6 C-6.1328125 5.546875 -6.1328125 5.546875 -8 5 C-6.71475739 4.13619741 -5.42157581 3.28419631 -4.125 2.4375 C-3.04605469 1.72400391 -3.04605469 1.72400391 -1.9453125 0.99609375 C-1.30335938 0.66738281 -0.66140625 0.33867188 0 0 Z " fill="#ABAED0" transform="translate(322,520)"/>
<path d="M0 0 C-0.8353125 0.37125 -0.8353125 0.37125 -1.6875 0.75 C-4.39971127 2.21606015 -6.63587365 4.02989471 -9 6 C-9.66 5.67 -10.32 5.34 -11 5 C-4.85714286 -0.71428571 -4.85714286 -0.71428571 0 0 Z " fill="#D6CFF6" transform="translate(373,514)"/>
<path d="M0 0 C0.66 0.33 1.32 0.66 2 1 C0.35 2.98 -1.3 4.96 -3 7 C-3.66 6.67 -4.32 6.34 -5 6 C-3.63016497 2.83884224 -3.0109362 2.0072908 0 0 Z " fill="#B8B4DC" transform="translate(336,507)"/>
<path d="M0 0 C0.66 0.33 1.32 0.66 2 1 C2 1.66 2 2.32 2 3 C3.65 3.33 5.3 3.66 7 4 C7 4.33 7 4.66 7 5 C4.03 5 1.06 5 -2 5 C-1.34 4.67 -0.68 4.34 0 4 C0 2.68 0 1.36 0 0 Z " fill="#ABACED" transform="translate(352,502)"/>
<path d="M0 0 C2 2 2 2 2.1953125 3.9453125 C2.13020833 5.96354167 2.06510417 7.98177083 2 10 C-0.18043828 7.81956172 -0.56240225 6.97566473 -1 4 C-0.5625 1.75 -0.5625 1.75 0 0 Z " fill="#BAB6E4" transform="translate(391,524)"/>
</svg>
